<?xml version="1.0" encoding="utf-8"?>
<svg width="24px" height="24px" viewBox="0 0 24 24" version="1.1" xmlns="http://www.w3.org/2000/svg">
  <title>Untitled 2</title>
  <g id="Page-1" stroke="none" stroke-width="1" fill="none" fill-rule="evenodd">
    <g id="lightbulb-blue" transform="translate(2.000000, 0.000000)" fill="#08088B" fill-rule="nonzero">
      <path d="M11.4946958,21.9479182 C12.1359602,21.9479182 12.6564191,22.4071591 12.6564191,22.9737864 C12.6564191,23.488965 12.2264559,23.915403 11.6661615,23.9889506 L11.4946958,24 L8.58324313,24 C7.94197878,24 7.4219528,23.5407591 7.4219528,22.9737864 C7.4219528,22.4589532 7.851483,22.0325152 8.41177744,21.9589676 L8.58324313,21.9479182 L11.4946958,21.9479182 Z M12.9707729,18.8868875 C13.6168002,18.8868875 14.1407231,19.3464737 14.1407231,19.913101 C14.1407231,20.4282796 13.7077289,20.8547176 13.1435376,20.9282652 L12.9707729,20.9389693 L7.10716605,20.9389693 C6.46113877,20.9389693 5.93764884,20.4797284 5.93764884,19.913101 C5.93764884,19.3979225 6.37021,18.9714845 6.93440139,18.8982822 L7.10716605,18.8868875 L12.9707729,18.8868875 Z M10,0 C15.5228404,0 20,3.9943602 20,8.92204989 C20,11.6688631 18.6100888,13.9250137 16.145919,15.5440969 L15.7683481,15.7820044 L15.5869236,15.8859379 L15.5869236,16.7978592 C15.5860576,17.2705666 15.2344663,17.6697264 14.7516779,17.7992116 L14.5862741,17.8323598 L14.4130764,17.8434092 L5.58692358,17.8434092 C4.99761853,17.8434092 4.50963412,17.4559894 4.42563325,16.9511697 L4.41307642,16.796478 L4.41134445,15.8859379 L4.23381684,15.7833856 C1.79172981,14.3072541 0.303961897,12.2489569 0.0415674388,9.73487181 L0.0095258714,9.31188674 L0,8.92204989 C0,3.9943602 4.47715956,0 10,0 Z M10.0194847,2.05242713 C5.78047196,2.05242713 2.34379736,5.08894196 2.34379736,8.83503582 C2.34379736,11.1726757 3.6886772,13.0006618 6.18229054,14.2751417 C6.49404633,14.4343222 6.70318251,14.7095215 6.75687378,15.0185595 L6.7702966,15.175323 L6.76856462,15.6176445 L13.2704048,15.6176445 L13.2712708,15.1732512 C13.2717038,14.9084108 13.3860143,14.6577274 13.5834596,14.4688516 L13.7120589,14.3628464 L13.8584109,14.2741058 C16.3511583,12.9992806 17.6951721,11.1719852 17.6951721,8.83503582 C17.6951721,5.08894196 14.2584975,2.05242713 10.0194847,2.05242713 Z" id="Shape" style="fill: rgb(0, 158, 79);"/>
    </g>
  </g>
</svg>