<?xml version="1.0" encoding="UTF-8"?>
<svg width="85px" height="22px" viewBox="0 0 85 22" version="1.1" xmlns="http://www.w3.org/2000/svg" xmlns:xlink="http://www.w3.org/1999/xlink">
    <title>0D4E25FB-28E3-4FE7-9F98-9ACC5AE79590@1x</title>
    <g id="Blue-Steel" stroke="none" stroke-width="1" fill="none" fill-rule="evenodd">
        <g id="Beacon" fill="#FFFFFF">
            <polygon id="Fill-14" points="82.0300743 2.08770392 82.0300743 0.529201762 82.64124 0.529201762 82.64124 0.217382542 81.0471013 0.217382542 81.0471013 0.529201762 81.658267 0.529201762 81.658267 2.08770392"></polygon>
            <polygon id="Fill-16" points="84.9841605 2.08770392 84.9841605 0.217382542 84.452583 0.217382542 83.9714905 1.55612639 83.4933677 0.217382542 82.9588204 0.217382542 82.9588204 2.08770392 83.3021185 2.08770392 83.3021185 0.577904954 83.824193 2.08770392 84.1241334 2.08770392 84.6408624 0.577904954 84.6408624 2.08770392"></polygon>
            <polygon id="Fill-12" points="77.5610219 19.7432645 76.7651404 19.7432645 72.6146781 0.215660112 68.2272332 0.215660112 68.2272332 21.7216832 70.18427 21.7216832 70.18427 2.19407882 70.9801515 2.19407882 75.1306138 21.7216832 79.5180587 21.7216832 79.5180587 0.215660112 77.5610219 0.215660112"></polygon>
            <path d="M62.2514109,15.1407534 C62.2514109,18.2589456 61.1977632,19.957618 58.724587,19.957618 C56.2508212,19.957618 55.1977632,18.2589456 55.1977632,15.1407534 L55.1977632,6.79647111 C55.1977632,3.67768497 56.2508212,1.97901265 58.724587,1.97901265 C61.1977632,1.97901265 62.2514109,3.67768497 62.2514109,6.79647111 L62.2514109,15.1407534 Z M58.724587,-5.78584799e-15 C55.0682839,-5.78584799e-15 53.1759867,2.47317187 53.1759867,6.68896772 L53.1759867,15.2482568 C53.1759867,19.4634587 55.0682839,21.9366306 58.724587,21.9366306 C62.3808901,21.9366306 64.2725934,19.4634587 64.2725934,15.2482568 L64.2725934,6.68896772 C64.2725934,2.47317187 62.3808901,-5.78584799e-15 58.724587,-5.78584799e-15 L58.724587,-5.78584799e-15 Z" id="Fill-10"></path>
            <path d="M44.5758345,0.000178182411 C40.984271,0.000178182411 39.1988832,2.47335005 39.1988832,6.68855196 L39.1988832,15.2478411 C39.1988832,19.4636369 40.984271,21.9368088 44.5758345,21.9368088 C48.1673979,21.9368088 49.9521918,19.4636369 49.9521918,15.2478411 L49.9521918,14.215571 L47.9304153,14.215571 L47.9304153,15.1409316 C47.9304153,18.2591238 46.9848607,19.9577961 44.5758345,19.9577961 C42.1668083,19.9577961 41.2212536,18.2591238 41.2212536,15.1409316 L41.2212536,6.79605535 C41.2212536,3.67786315 42.1668083,1.97919083 44.5758345,1.97919083 C46.9848607,1.97919083 47.9304153,3.67786315 47.9304153,6.79605535 L47.9304153,7.50581529 L49.9521918,7.50581529 L49.9521918,6.68855196 C49.9521918,2.47335005 48.1673979,0.000178182411 44.5758345,0.000178182411" id="Fill-5"></path>
            <path d="M28.4498511,0.215303747 L24.4930137,21.7219208 L26.4928143,21.7219208 L27.6337756,15.398821 L33.6545593,15.398821 L34.7949268,21.7219208 L36.8380851,21.7219208 L32.8806537,0.215303747 L28.4498511,0.215303747 Z M30.041614,2.19372246 L31.246721,2.19372246 L33.2892854,13.4204023 L27.9984556,13.4204023 L30.041614,2.19372246 Z" id="Fill-1"></path>
            <polygon id="Fill-8" points="14.1270737 21.7216832 22.6008352 21.7216832 22.9667031 19.7432645 16.1488501 19.7432645 16.1488501 11.6989226 22.8586058 11.6989226 22.8586058 9.72109782 16.1488501 9.72109782 16.1488501 2.19407882 23.0736126 2.19407882 23.0736126 0.215660112 14.1270737 0.215660112"></polygon>
            <path d="M8.68876832,16.6674203 C8.68876832,18.9261794 7.82874122,19.7434427 5.26944785,19.7434427 L2.02177643,19.7434427 L2.02177643,11.5921913 L5.26944785,11.5921913 C7.82874122,11.5921913 8.68876832,12.4094546 8.68876832,14.6676197 L8.68876832,16.6674203 Z M2.02177643,2.19366306 L5.07582296,2.19366306 C7.63511633,2.19366306 8.49514343,3.01092639 8.49514343,5.26909148 L8.49514343,6.53834419 C8.49514343,8.79650929 7.63511633,9.61377261 5.07582296,9.61377261 L2.02177643,9.61377261 L2.02177643,2.19366306 Z M6.88199867,10.774928 L6.88199867,10.4310359 C9.41991015,10.2801748 10.495538,9.20514095 10.495538,6.4308408 L10.495538,5.20494581 C10.495538,1.80641329 8.83962943,0.215244353 5.07582296,0.215244353 L-5.78584799e-15,0.215244353 L-5.78584799e-15,21.7218614 L5.29082974,21.7218614 C9.05404226,21.7218614 10.7099508,20.1300985 10.7099508,16.7321599 L10.7099508,14.7751231 C10.7099508,12.000229 9.63491693,10.8610495 6.88199867,10.774928 L6.88199867,10.774928 Z" id="Fill-2"></path>
        </g>
    </g>
</svg>