<?xml version="1.0" encoding="utf-8"?>
<!-- Generator: Adobe Illustrator 25.0.0, SVG Export Plug-In . SVG Version: 6.00 Build 0)  -->
<svg version="1.1" id="Layer_1" xmlns="http://www.w3.org/2000/svg" xmlns:xlink="http://www.w3.org/1999/xlink" x="0px" y="0px"
	 viewBox="0 0 633.9 103" style="enable-background:new 0 0 633.9 103;" xml:space="preserve">
<path d="M140.2,1.5h21v100h-21V1.5z M127.7,27.8v3.9c0,12.7-4.5,18.4-16.3,19.6v1.8c11.8,1.2,16.3,6.9,16.3,19.6v28.8h-21V72
	c0-8-2.4-10.4-8.7-10.4h-7v39.9H70V1.5h32.2C120.9,1.5,127.7,9.3,127.7,27.8z M106.7,28.9c0-8-2.4-10.4-8.7-10.4h-7v26.1h6
	c7,0,9.7-2.5,9.7-10.7V28.9z M58.5,70.2v5c0,18.5-6.8,26.3-25.5,26.3H0V1.5h32.5C51.2,1.5,58,9.3,58,27.8v1.4
	c0,12.7-4.5,18.4-16.3,19.6v1.8C54,51.8,58.5,57.5,58.5,70.2z M21,42.2h6.5c7,0,9.7-2.5,9.7-10.7v-2.6c0-8-2.4-10.4-8.7-10.4H21
	V42.2z M37.5,69.6c0-8-2.4-10.4-8.7-10.4H21v25.3h7.8c6.3,0,8.7-2.4,8.7-10.4V69.6z M202.8,0c-19,0-28.7,10.5-28.7,30v46
	c0,18.2,7.5,27,24,27c13.8,0,19.4-5.8,20-19.9h1.5l2.7,18.4h9.2V46.2H203v15.2h8.5v14.8c0,7-2.7,10-8.2,10s-8.2-3-8.2-10V26.8
	c0-7,2.7-10,7.8-10c5.1,0,7.8,3,7.8,10v10.6h20.8V29C231.5,9.9,222,0,202.8,0z M525.5,84.2h-1.9L516,1.5h-21.7l11.7,100h34.8
	l11.3-100h-19.4L525.5,84.2z M487.4,30v43c0,19.5-10,30-29,30s-29-10.5-29-30V30c0-19.5,10-30,29-30S487.4,10.5,487.4,30z
	 M466.4,26.8c0-7-2.9-10-8-10c-5.1,0-8,3-8,10v49.4c0,7,2.9,10,8,10c5.1,0,8-3,8-10V26.8z M608.4,18.8V1.5h-47.5v100h47.5V84.2
	h-26.5V59.4h24.7V42.6h-24.7V18.8H608.4z M308.7,18.8h14.7v82.7h21V18.8h14.7V1.5h-50.4V18.8z M391.9,0c-18.4,0-28.3,10.5-28.3,30
	v43c0,19.5,9.9,30,28.3,30c18.7,0,28.3-9.9,28.3-29V61.8h-20.8v14.4c0,7-2.7,10-7.4,10s-7.4-3-7.4-10V26.8c0-7,2.7-10,7.4-10
	s7.4,3,7.4,10v13.4h20.8V29C420.2,9.9,410.6,0,391.9,0z M280.7,42.7H266V1.5h-21v100h21v-42h14.7v42h21V1.5h-21V42.7z"/>
<g>
	<path d="M628.8,7.6V7.3c0-1.6-1.2-2.7-3.4-2.7h-3.7v8.6h1.8v-2.9h2l1.5,2.9h2l-1.8-3.4C628.2,9.4,628.8,8.6,628.8,7.6 M623.5,6.2h2
		c1.1,0,1.6,0.4,1.6,1.2v0.1c0,0.7-0.5,1.2-1.6,1.2h-2V6.2z"/>
	<path d="M625.1,0c-5,0-8.9,3.8-8.9,8.9s3.8,8.9,8.9,8.9c5,0,8.9-3.8,8.9-8.9S630.1,0,625.1,0 M625.1,16.5c-4.4,0-7.6-3.2-7.6-7.6
		s3.2-7.6,7.6-7.6c4.4,0,7.6,3.2,7.6,7.6S629.4,16.5,625.1,16.5"/>
</g>
</svg>
